#!OML:ASF F:\VICON\USERDATA\INSTALL\rory3\rory3.ASF
:FULLY-SPECIFIED
:DEGREES
16
root 4.60121 18.0581 -26.4197 -3.12115 -0.420162 -3.54194
lowerback 12.4966 -1.5154 1.89993
upperback 0.563011 -1.52901 3.21576
thorax -6.3853 -0.756936 2.59447
lowerneck -17.0677 -2.83766 -2.66439
upperneck 19.5497 -3.28351 0.284204
head 8.99994 -1.70972 0.120734
rclavicle 3.27995e-014 -2.78299e-014
rhumerus -32.7587 -22.6137 -75.4699
rradius 20.2829
rwrist 10.0538
rhand -17.1821 21.8788
rfingers 7.12502
rthumb 9.05966 -7.90668
lclavicle 3.27995e-014 -2.78299e-014
lhumerus -30.6002 -0.282356 85.3082
lradius 30.2666
lwrist 4.03582
lhand -28.9012 19.4448
lfingers 7.12502
lthumb -2.25627 49.4126
rfemur -18.3217 6.38041 28.6253
rtibia 31.2069
rfoot -7.84913 -3.97436
rtoes 8.64226
lfemur -8.55166 1.61192 -16.8371
ltibia 63.5042
lfoot 16.5535 -15.9477
ltoes 11.6461
17
root 4.59421 18.0759 -26.2474 -3.1987 -0.398598 -3.77567
lowerback 12.6355 -1.20014 2.56296
upperback 1.14557 -1.05497 2.85259
thorax -5.87721 -0.546982 1.74103
lowerneck -19.5159 -3.15569 -1.89847
upperneck 20.1293 -3.88369 0.297552
head 9.63834 -1.91666 -0.122734
rclavicle -1.51573e-014 6.36111e-015
rhumerus -31.4453 -23.8753 -76.185
rradius 20.2311
rwrist 10.2024
rhand -17.0327 22.1272
rfingers 7.12502
rthumb 9.20379 -7.6519
lclavicle -1.51573e-014 6.36111e-015
lhumerus -29.2027 -1.29016 85.2613
lradius 29.908
lwrist 4.54994
lhand -30.2252 17.194
lfingers 7.12502
lthumb -3.53492 47.1445
rfemur -17.4824 6.49541 28.9858
rtibia 31.0161
rfoot -8.42734 -4.28318
rtoes 11.692
lfemur -9.87811 1.89623 -16.5263
ltibia 64.6661
lfoot 11.8262 -13.5293
ltoes 15.4787
18
root 4.58962 18.1069 -26.0744 -3.27491 -0.558142 -3.92782
lowerback 12.8968 -1.3287 2.54171
upperback 0.688004 -1.18462 3.06822
thorax -6.50307 -0.608698 2.02369
lowerneck -17.7183 -2.99884 -2.38338
upperneck 19.7582 -3.57185 0.312324
head 9.1889 -1.81722 0.0356855
rclavicle -1.64494e-014 1.59028e-014
rhumerus -31.8315 -22.215 -76.1838
rradius 20.1992
rwrist 9.9156
rhand -17.0677 22.1643
rfingers 7.12502
rthumb 9.17005 -7.61628
lclavicle -1.64494e-014 1.59028e-014
lhumerus -30.6307 0.0396287 85.2203
lradius 30.021
lwrist 4.25663
lhand -29.627 20.9776
lfingers 7.12502
lthumb -2.95725 50.9368
rfemur -16.6293 6.49934 29.2731
rtibia 30.7784
rfoot -9.00128 -4.25793
rtoes 12.2176
lfemur -11.0997 2.27696 -16.3159
ltibia 65.5442
lfoot 5.89788 -11.1039
ltoes 15.4653
19
root 4.58597 18.1312 -25.898 -3.33326 -0.849084 -3.97176
lowerback 12.7703 -0.815598 3.09273
upperback 1.49227 -0.496937 2.53923
thorax -5.59776 -0.286414 1.01059
lowerneck -20.701 -3.3721 -1.33471
upperneck 20.673 -4.31588 0.181554
head 10.0353 -2.07626 -0.343392
rclavicle 1.31695e-014 3.18055e-015
rhumerus -30.2805 -24.6686 -76.7187
rradius 20.0258
rwrist 10.794
rhand -16.7211 22.2912
rfingers 7.12502
rthumb 9.50441 -7.4745
lclavicle 1.31695e-014 3.18055e-015
lhumerus -28.8053 -0.816526 84.8833
lradius 29.4501
lwrist 3.67167
lhand -27.6847 27.2468
lfingers 7.12502
lthumb -1.08136 57.2238
rfemur -15.7775 6.67064 29.4496
rtibia 30.5729
rfoot -9.50612 -4.26029
rtoes 10.9949
lfemur -12.1606 2.62771 -16.2163
ltibia 66.2198
lfoot 4.71454 -12.2201
ltoes 2.16421
20
root 4.58243 18.1359 -25.7257 -3.33677 -1.15265 -4.14657
lowerback 12.5393 -1.11342 2.71482
upperback 0.647926 -0.888045 3.10082
thorax -6.35207 -0.468422 1.89764
lowerneck -16.4314 -2.90037 -2.60186
upperneck 19.6549 -3.4233 0.35282
head 8.92268 -1.76569 0.124501
rclavicle 1.58779e-014 -2.5842e-014
rhumerus -31.6145 -21.4099 -76.3216
rradius 20.2691
rwrist 9.8793
rhand -15.6578 22.022
rfingers 7.12502
rthumb 10.5303 -7.69423
lclavicle 1.58779e-014 -2.5842e-014
lhumerus -31.3646 1.9855 84.7676
lradius 29.5294
lwrist 2.69741
lhand -27.2528 27.4545
lfingers 7.12502
lthumb -0.664278 57.4332
rfemur -15.0626 6.93987 29.777
rtibia 30.4614
rfoot -9.88967 -4.37582
rtoes 9.69931
lfemur -13.358 3.01854 -15.9824
ltibia 66.7769
lfoot 5.22675 -11.3705
ltoes -11.0743
21
root 4.58071 18.1271 -25.563 -3.36457 -1.28419 -4.31597
lowerback 12.5025 -0.961287 2.99957
upperback 0.981887 -0.667435 3.01527
thorax -5.98388 -0.367125 1.59921
lowerneck -17.3938 -3.02683 -2.34068
upperneck 19.7504 -3.62329 0.279325
head 9.12637 -1.84296 0.0157844
rclavicle -7.30534e-015 -1.43125e-014
rhumerus -30.6308 -21.0509 -77.0289
rradius 20.4281
rwrist 9.27188
rhand -14.0692 20.0099
rfingers 7.12502
rthumb 12.0624 -9.62248
lclavicle -7.30534e-015 -1.43125e-014
lhumerus -30.7742 2.36284 84.6149
lradius 29.415
lwrist 2.35316
lhand -29.5879 21.2997
lfingers 7.12502
lthumb -2.91947 51.2595
rfemur -14.4063 7.10042 30.0836
rtibia 30.4269
rfoot -9.86478 -4.54258
rtoes 11.7202
lfemur -14.576 3.22202 -15.8015
ltibia 67.2509
lfoot 4.9686 -10.8082
ltoes -20.6457
22
root 4.57845 18.1311 -25.3985 -3.28901 -1.46653 -4.36298
lowerback 12.5808 -0.67479 3.29501
upperback 1.24758 -0.267991 2.77921
thorax -5.75016 -0.178741 1.11056
lowerneck -18.7669 -3.2619 -1.82781
upperneck 20.1708 -4.02268 0.102382
head 9.5118 -2.00218 -0.208896
rclavicle 1.05107e-014 -1.23246e-014
rhumerus -29.6799 -21.5218 -77.5492
rradius 20.765
rwrist 9.62536
rhand -13.0195 16.5244
rfingers 7.12502
rthumb 13.0744 -13.0458
lclavicle 1.05107e-014 -1.23246e-014
lhumerus -30.0556 1.75841 84.6139
lradius 29.3338
lwrist 3.01995
lhand -31.7074 17.4263
lfingers 7.12502
lthumb -4.96616 47.3481
rfemur -13.8556 7.19822 30.2405
rtibia 30.4579
rfoot -9.93019 -4.40096
rtoes 13.8199
lfemur -15.7946 3.3919 -15.7966
ltibia 67.4252
lfoot 4.28551 -10.0651
ltoes -21.1383
23
root 4.57078 18.149 -25.237 -3.22242 -1.73085 -4.42222
lowerback 12.7461 -0.313854 3.60318
upperback 1.62862 0.225713 2.44461
thorax -5.43316 0.0585732 0.496416
lowerneck -20.8201 -3.48174 -1.17427
upperneck 20.8783 -4.49245 0.0678077
head 10.1247 -2.15625 -0.44019
rclavicle 7.45443e-016 -1.51076e-014
rhumerus -28.419 -22.4752 -78.1527
rradius 21.1101
rwrist 10.8876
rhand -16.8055 27.4596
rfingers 7.12502
rthumb 9.42299 -2.30976
lclavicle 7.45443e-016 -1.51076e-014
lhumerus -28.9591 1.24456 84.4341
lradius 29.0469
lwrist 3.73518
lhand -31.7072 20.6101
lfingers 7.12502
lthumb -4.96603 50.5319
rfemur -13.2491 7.40584 30.4265
rtibia 30.4022
rfoot -10.5542 -4.03744
rtoes 13.1883
lfemur -17.1006 3.62704 -15.7385
ltibia 67.3928
lfoot 2.8147 -8.34391
ltoes -16.8275
24
root 4.56492 18.1589 -25.0784 -3.21926 -1.8931 -4.3232
lowerback 12.802 -0.394488 3.20963
upperback 1.11286 0.102224 2.66793
thorax -6.01386 0.000607332 0.980529
lowerneck -18.5481 -3.29099 -1.97359
upperneck 20.4512 -4.07143 0.279049
head 9.57843 -2.01601 -0.129843
rclavicle 3.37934e-015 1.35174e-014
rhumerus -28.9707 -20.7827 -77.9154
rradius 21.3778
rwrist 10.9882
rhand -14.9497 23.2273
rfingers 7.12502
rthumb 11.2133 -6.45303
lclavicle 3.37934e-015 1.35174e-014
lhumerus -30.3811 3.00588 84.2116
lradius 28.953
lwrist 3.70733
lhand -30.8069 24.3107
lfingers 7.12502
lthumb -4.09669 54.2511
rfemur -12.5822 7.42676 30.4207
rtibia 30.2897
rfoot -11.2829 -4.24542
rtoes 11.2778
lfemur -18.3134 3.76187 -15.8804
ltibia 67.1458
lfoot 0.712438 -6.74511
ltoes -14.054
